<svg xmlns="http://www.w3.org/2000/svg" xmlns:xlink="http://www.w3.org/1999/xlink" width="400" zoomAndPan="magnify" viewBox="0 0 300 67.499998" height="90" preserveAspectRatio="xMidYMid meet" version="1.0"><defs><g/><clipPath id="ad5bdd43e1"><path d="M 23 1.441406 L 83.742188 1.441406 L 83.742188 65 L 23 65 Z M 23 1.441406 " clip-rule="nonzero"/></clipPath><clipPath id="4a15d20136"><path d="M 2.59375 19 L 40 19 L 40 65.464844 L 2.59375 65.464844 Z M 2.59375 19 " clip-rule="nonzero"/></clipPath></defs><g clip-path="url(#ad5bdd43e1)"><path fill="#ff9900" d="M 77.042969 25.609375 C 74.195312 22.757812 70.722656 20.757812 66.925781 19.738281 C 66.707031 18.664062 66.414062 17.605469 66.042969 16.582031 C 64.015625 10.84375 59.871094 6.253906 54.386719 3.652344 C 51.292969 2.191406 48.003906 1.449219 44.609375 1.449219 C 42.007812 1.449219 39.453125 1.890625 37.019531 2.761719 L 36.695312 2.875 L 36.65625 2.917969 C 31.109375 4.980469 26.667969 9.074219 24.132812 14.449219 C 23.78125 15.15625 23.496094 15.832031 23.234375 16.496094 C 23.945312 16.4375 24.65625 16.398438 25.375 16.398438 C 27.542969 16.398438 29.746094 16.6875 31.933594 17.242188 C 33.660156 14.113281 36.421875 11.75 39.777344 10.554688 C 41.335938 9.996094 42.96875 9.710938 44.628906 9.710938 C 46.785156 9.710938 48.875 10.183594 50.84375 11.117188 C 54.261719 12.734375 56.859375 15.554688 58.195312 19.070312 C 46.339844 20.097656 41.042969 27.878906 33.882812 38.398438 L 33.777344 38.554688 C 32.214844 40.851562 30.445312 43.453125 28.402344 46.242188 L 26.957031 48.214844 L 29.488281 48.652344 C 30.105469 48.757812 30.871094 48.894531 31.769531 48.894531 C 35.097656 48.894531 38.007812 46.980469 40.664062 43.046875 C 47.351562 33.171875 51.390625 27.214844 60.957031 27.214844 C 64.867188 27.214844 68.503906 28.71875 71.203125 31.457031 C 73.9375 34.195312 75.441406 37.839844 75.441406 41.722656 C 75.441406 45.605469 73.9375 49.253906 71.203125 51.992188 C 68.511719 54.6875 64.777344 56.234375 60.957031 56.234375 C 59.433594 56.234375 57.972656 56.003906 56.570312 55.535156 C 55.167969 55.109375 53.816406 54.445312 52.664062 53.613281 L 51.417969 52.710938 L 46.703125 59.511719 L 47.945312 60.375 C 49.914062 61.742188 52.007812 62.777344 54.164062 63.445312 C 56.410156 64.144531 58.695312 64.496094 60.957031 64.496094 C 67.019531 64.496094 72.734375 62.117188 77.042969 57.800781 C 81.328125 53.507812 83.6875 47.796875 83.6875 41.722656 C 83.6875 35.625 81.328125 29.902344 77.042969 25.609375 Z M 77.042969 25.609375 " fill-opacity="1" fill-rule="nonzero"/></g><g clip-path="url(#4a15d20136)"><path fill="#0099ff" d="M 38.425781 24.054688 C 36.484375 22.707031 34.394531 21.675781 32.199219 20.980469 C 29.917969 20.285156 27.621094 19.933594 25.375 19.933594 C 19.355469 19.933594 13.65625 22.296875 9.328125 26.589844 C 5.019531 30.90625 2.644531 36.628906 2.644531 42.703125 C 2.644531 48.777344 5.019531 54.5 9.328125 58.816406 C 13.65625 63.113281 19.355469 65.476562 25.375 65.476562 C 27.621094 65.476562 29.914062 65.125 32.199219 64.429688 C 34.394531 63.734375 36.484375 62.699219 38.425781 61.351562 L 39.671875 60.484375 L 34.90625 53.695312 L 33.667969 54.59375 C 32.496094 55.441406 31.175781 56.101562 29.742188 56.558594 C 28.371094 56.992188 26.902344 57.214844 25.375 57.214844 C 21.578125 57.214844 17.855469 55.667969 15.164062 52.96875 C 12.410156 50.210938 10.890625 46.5625 10.890625 42.703125 C 10.890625 38.84375 12.410156 35.199219 15.164062 32.4375 C 17.855469 29.742188 21.578125 28.195312 25.375 28.195312 C 26.902344 28.195312 28.371094 28.414062 29.742188 28.847656 C 31.175781 29.304688 32.496094 29.96875 33.667969 30.8125 L 34.445312 31.378906 C 36.125 29.019531 37.804688 26.828125 39.59375 24.867188 Z M 38.425781 24.054688 " fill-opacity="1" fill-rule="nonzero"/></g><g fill="#0099ff" fill-opacity="1"><g transform="translate(88.337298, 37.834316)"><g><path d="M 12.976562 0.40625 C 18.117188 0.40625 20.953125 -2.332031 22.578125 -5.136719 L 18.453125 -7.132812 C 17.507812 -5.273438 15.480469 -3.851562 12.976562 -3.851562 C 9.058594 -3.851562 6.082031 -6.996094 6.082031 -11.253906 C 6.082031 -15.511719 9.058594 -18.65625 12.976562 -18.65625 C 15.480469 -18.65625 17.507812 -17.203125 18.453125 -15.378906 L 22.578125 -17.40625 C 20.988281 -20.210938 18.117188 -22.914062 12.976562 -22.914062 C 6.386719 -22.914062 1.148438 -18.183594 1.148438 -11.253906 C 1.148438 -4.324219 6.386719 0.40625 12.976562 0.40625 Z M 12.976562 0.40625 "/></g></g></g><g fill="#0099ff" fill-opacity="1"><g transform="translate(115.474636, 37.834316)"><g><path d="M 16.5625 0 L 16.5625 -4.226562 L 7.03125 -4.226562 L 7.03125 -22.542969 L 2.230469 -22.542969 L 2.230469 0 Z M 16.5625 0 "/></g></g></g><g fill="#0099ff" fill-opacity="1"><g transform="translate(137.069743, 37.834316)"><g><path d="M 1.148438 -11.253906 C 1.148438 -4.460938 6.117188 0.40625 12.910156 0.40625 C 19.738281 0.40625 24.707031 -4.460938 24.707031 -11.253906 C 24.707031 -18.046875 19.738281 -22.914062 12.910156 -22.914062 C 6.117188 -22.914062 1.148438 -18.046875 1.148438 -11.253906 Z M 19.773438 -11.253906 C 19.773438 -7.0625 17.066406 -3.851562 12.910156 -3.851562 C 8.753906 -3.851562 6.082031 -7.0625 6.082031 -11.253906 C 6.082031 -15.480469 8.753906 -18.65625 12.910156 -18.65625 C 17.066406 -18.65625 19.773438 -15.480469 19.773438 -11.253906 Z M 19.773438 -11.253906 "/></g></g></g><g fill="#0099ff" fill-opacity="1"><g transform="translate(166.843016, 37.834316)"><g><path d="M 2.230469 -8.988281 C 2.230469 -3.449219 5.441406 0.40625 12.335938 0.40625 C 19.164062 0.40625 22.375 -3.414062 22.375 -9.023438 L 22.375 -22.542969 L 17.507812 -22.542969 L 17.507812 -9.160156 C 17.507812 -6.015625 15.785156 -3.851562 12.335938 -3.851562 C 8.820312 -3.851562 7.097656 -6.015625 7.097656 -9.160156 L 7.097656 -22.542969 L 2.230469 -22.542969 Z M 2.230469 -8.988281 "/></g></g></g><g fill="#0099ff" fill-opacity="1"><g transform="translate(195.365912, 37.834316)"><g><path d="M 11.121094 0 C 18.183594 0 23.082031 -4.460938 23.082031 -11.253906 C 23.082031 -18.046875 18.183594 -22.542969 11.121094 -22.542969 L 2.230469 -22.542969 L 2.230469 0 Z M 7.03125 -18.316406 L 11.121094 -18.316406 C 15.75 -18.316406 18.183594 -15.242188 18.183594 -11.253906 C 18.183594 -7.433594 15.582031 -4.226562 11.121094 -4.226562 L 7.03125 -4.226562 Z M 7.03125 -18.316406 "/></g></g></g><g fill="#0099ff" fill-opacity="1"><g transform="translate(223.550867, 37.834316)"><g><path d="M 7.03125 0 L 7.03125 -22.542969 L 2.230469 -22.542969 L 2.230469 0 Z M 7.03125 0 "/></g></g></g><g fill="#0099ff" fill-opacity="1"><g transform="translate(236.731251, 37.834316)"><g><path d="M 16.5625 0 L 16.5625 -4.226562 L 7.03125 -4.226562 L 7.03125 -22.542969 L 2.230469 -22.542969 L 2.230469 0 Z M 16.5625 0 "/></g></g></g><g fill="#0099ff" fill-opacity="1"><g transform="translate(258.326361, 37.834316)"><g><path d="M 7.03125 0 L 7.03125 -22.542969 L 2.230469 -22.542969 L 2.230469 0 Z M 7.03125 0 "/></g></g></g><g fill="#0099ff" fill-opacity="1"><g transform="translate(271.506737, 37.834316)"><g><path d="M 12.976562 0.40625 C 18.117188 0.40625 20.953125 -2.332031 22.578125 -5.136719 L 18.453125 -7.132812 C 17.507812 -5.273438 15.480469 -3.851562 12.976562 -3.851562 C 9.058594 -3.851562 6.082031 -6.996094 6.082031 -11.253906 C 6.082031 -15.511719 9.058594 -18.65625 12.976562 -18.65625 C 15.480469 -18.65625 17.507812 -17.203125 18.453125 -15.378906 L 22.578125 -17.40625 C 20.988281 -20.210938 18.117188 -22.914062 12.976562 -22.914062 C 6.386719 -22.914062 1.148438 -18.183594 1.148438 -11.253906 C 1.148438 -4.324219 6.386719 0.40625 12.976562 0.40625 Z M 12.976562 0.40625 "/></g></g></g><g fill="#000000" fill-opacity="1"><g transform="translate(94.710362, 60.524611)"><g><path d="M 3.125 0.109375 C 2.382812 0.109375 1.804688 -0.09375 1.390625 -0.5 C 0.972656 -0.914062 0.765625 -1.519531 0.765625 -2.3125 L 0.765625 -6.53125 C 0.765625 -6.59375 0.800781 -6.625 0.875 -6.625 L 1.546875 -6.625 C 1.609375 -6.625 1.640625 -6.59375 1.640625 -6.53125 L 1.640625 -2.328125 C 1.640625 -1.785156 1.773438 -1.378906 2.046875 -1.109375 C 2.316406 -0.835938 2.675781 -0.703125 3.125 -0.703125 C 3.5625 -0.703125 3.914062 -0.835938 4.1875 -1.109375 C 4.457031 -1.378906 4.59375 -1.785156 4.59375 -2.328125 L 4.59375 -6.53125 C 4.59375 -6.59375 4.625 -6.625 4.6875 -6.625 L 5.359375 -6.625 C 5.421875 -6.625 5.453125 -6.59375 5.453125 -6.53125 L 5.453125 -2.3125 C 5.453125 -1.519531 5.242188 -0.914062 4.828125 -0.5 C 4.421875 -0.09375 3.851562 0.109375 3.125 0.109375 Z M 3.125 0.109375 "/></g></g></g><g fill="#000000" fill-opacity="1"><g transform="translate(103.434181, 60.524611)"><g><path d="M 0.8125 -6.53125 C 0.8125 -6.59375 0.847656 -6.625 0.921875 -6.625 L 1.546875 -6.625 C 1.617188 -6.625 1.671875 -6.59375 1.703125 -6.53125 L 4.703125 -1.5625 L 4.75 -1.5625 L 4.75 -6.53125 C 4.75 -6.59375 4.78125 -6.625 4.84375 -6.625 L 5.453125 -6.625 C 5.523438 -6.625 5.5625 -6.59375 5.5625 -6.53125 L 5.5625 -0.09375 C 5.5625 -0.03125 5.523438 0 5.453125 0 L 4.84375 0 C 4.757812 0 4.703125 -0.03125 4.671875 -0.09375 L 1.65625 -5.046875 L 1.625 -5.046875 L 1.625 -0.09375 C 1.625 -0.03125 1.59375 0 1.53125 0 L 0.921875 0 C 0.847656 0 0.8125 -0.03125 0.8125 -0.09375 Z M 0.8125 -6.53125 "/></g></g></g><g fill="#000000" fill-opacity="1"><g transform="translate(112.304158, 60.524611)"><g><path d="M 0.8125 -6.53125 C 0.8125 -6.59375 0.847656 -6.625 0.921875 -6.625 L 1.59375 -6.625 C 1.65625 -6.625 1.6875 -6.59375 1.6875 -6.53125 L 1.6875 -0.875 C 1.6875 -0.832031 1.707031 -0.8125 1.75 -0.8125 L 4.90625 -0.8125 C 4.96875 -0.8125 5 -0.78125 5 -0.71875 L 5 -0.09375 C 5 -0.03125 4.96875 0 4.90625 0 L 0.921875 0 C 0.847656 0 0.8125 -0.03125 0.8125 -0.09375 Z M 0.8125 -6.53125 "/></g></g></g><g fill="#000000" fill-opacity="1"><g transform="translate(120.043831, 60.524611)"><g><path d="M 0.8125 -6.53125 C 0.8125 -6.59375 0.847656 -6.625 0.921875 -6.625 L 4.90625 -6.625 C 4.96875 -6.625 5 -6.59375 5 -6.53125 L 5 -5.921875 C 5 -5.859375 4.96875 -5.828125 4.90625 -5.828125 L 1.75 -5.828125 C 1.707031 -5.828125 1.6875 -5.804688 1.6875 -5.765625 L 1.6875 -3.8125 C 1.6875 -3.769531 1.707031 -3.75 1.75 -3.75 L 4.421875 -3.75 C 4.492188 -3.75 4.53125 -3.71875 4.53125 -3.65625 L 4.53125 -3.046875 C 4.53125 -2.972656 4.492188 -2.9375 4.421875 -2.9375 L 1.75 -2.9375 C 1.707031 -2.9375 1.6875 -2.921875 1.6875 -2.890625 L 1.6875 -0.875 C 1.6875 -0.832031 1.707031 -0.8125 1.75 -0.8125 L 4.90625 -0.8125 C 4.96875 -0.8125 5 -0.78125 5 -0.71875 L 5 -0.09375 C 5 -0.03125 4.96875 0 4.90625 0 L 0.921875 0 C 0.847656 0 0.8125 -0.03125 0.8125 -0.09375 Z M 0.8125 -6.53125 "/></g></g></g><g fill="#000000" fill-opacity="1"><g transform="translate(128.027102, 60.524611)"><g><path d="M 4.015625 -2.34375 L 2.96875 -5.359375 L 2.953125 -5.359375 L 1.90625 -2.34375 Z M 2.53125 -6.53125 C 2.550781 -6.59375 2.59375 -6.625 2.65625 -6.625 L 3.28125 -6.625 C 3.351562 -6.625 3.394531 -6.59375 3.40625 -6.53125 L 5.6875 -0.09375 C 5.707031 -0.03125 5.679688 0 5.609375 0 L 4.9375 0 C 4.875 0 4.832031 -0.03125 4.8125 -0.09375 L 4.296875 -1.546875 L 1.625 -1.546875 L 1.109375 -0.09375 C 1.085938 -0.03125 1.046875 0 0.984375 0 L 0.296875 0 C 0.234375 0 0.210938 -0.03125 0.234375 -0.09375 Z M 2.53125 -6.53125 "/></g></g></g><g fill="#000000" fill-opacity="1"><g transform="translate(136.439112, 60.524611)"><g><path d="M 2.828125 0.109375 C 2.585938 0.109375 2.351562 0.0820312 2.125 0.03125 C 1.90625 -0.0078125 1.691406 -0.0664062 1.484375 -0.140625 C 1.285156 -0.210938 1.101562 -0.300781 0.9375 -0.40625 C 0.769531 -0.507812 0.625 -0.613281 0.5 -0.71875 C 0.445312 -0.769531 0.441406 -0.820312 0.484375 -0.875 L 0.921875 -1.375 C 0.953125 -1.414062 0.992188 -1.421875 1.046875 -1.390625 C 1.265625 -1.210938 1.53125 -1.050781 1.84375 -0.90625 C 2.164062 -0.769531 2.519531 -0.703125 2.90625 -0.703125 C 3.363281 -0.703125 3.722656 -0.804688 3.984375 -1.015625 C 4.242188 -1.222656 4.375 -1.492188 4.375 -1.828125 C 4.375 -1.972656 4.347656 -2.101562 4.296875 -2.21875 C 4.253906 -2.34375 4.175781 -2.445312 4.0625 -2.53125 C 3.957031 -2.625 3.816406 -2.703125 3.640625 -2.765625 C 3.472656 -2.828125 3.253906 -2.878906 2.984375 -2.921875 L 2.65625 -2.96875 C 1.351562 -3.144531 0.703125 -3.753906 0.703125 -4.796875 C 0.703125 -5.085938 0.75 -5.351562 0.84375 -5.59375 C 0.945312 -5.832031 1.09375 -6.035156 1.28125 -6.203125 C 1.46875 -6.378906 1.695312 -6.507812 1.96875 -6.59375 C 2.238281 -6.6875 2.535156 -6.734375 2.859375 -6.734375 C 3.253906 -6.734375 3.628906 -6.675781 3.984375 -6.5625 C 4.335938 -6.445312 4.640625 -6.300781 4.890625 -6.125 C 4.941406 -6.082031 4.945312 -6.035156 4.90625 -5.984375 L 4.578125 -5.453125 C 4.535156 -5.398438 4.488281 -5.394531 4.4375 -5.4375 C 4.164062 -5.601562 3.898438 -5.722656 3.640625 -5.796875 C 3.390625 -5.878906 3.125 -5.921875 2.84375 -5.921875 C 2.425781 -5.921875 2.109375 -5.820312 1.890625 -5.625 C 1.679688 -5.425781 1.578125 -5.171875 1.578125 -4.859375 C 1.578125 -4.578125 1.679688 -4.347656 1.890625 -4.171875 C 2.097656 -3.992188 2.457031 -3.867188 2.96875 -3.796875 L 3.296875 -3.75 C 3.941406 -3.65625 4.425781 -3.457031 4.75 -3.15625 C 5.082031 -2.851562 5.25 -2.429688 5.25 -1.890625 C 5.25 -1.597656 5.195312 -1.328125 5.09375 -1.078125 C 4.988281 -0.835938 4.832031 -0.628906 4.625 -0.453125 C 4.425781 -0.273438 4.175781 -0.132812 3.875 -0.03125 C 3.570312 0.0625 3.222656 0.109375 2.828125 0.109375 Z M 2.828125 0.109375 "/></g></g></g><g fill="#000000" fill-opacity="1"><g transform="translate(144.695218, 60.524611)"><g><path d="M 0.8125 -6.53125 C 0.8125 -6.59375 0.847656 -6.625 0.921875 -6.625 L 1.59375 -6.625 C 1.65625 -6.625 1.6875 -6.59375 1.6875 -6.53125 L 1.6875 -3.8125 C 1.6875 -3.769531 1.707031 -3.75 1.75 -3.75 L 4.625 -3.75 C 4.664062 -3.75 4.6875 -3.769531 4.6875 -3.8125 L 4.6875 -6.53125 C 4.6875 -6.59375 4.71875 -6.625 4.78125 -6.625 L 5.453125 -6.625 C 5.515625 -6.625 5.546875 -6.59375 5.546875 -6.53125 L 5.546875 -0.09375 C 5.546875 -0.03125 5.515625 0 5.453125 0 L 4.78125 0 C 4.71875 0 4.6875 -0.03125 4.6875 -0.09375 L 4.6875 -2.890625 C 4.6875 -2.921875 4.664062 -2.9375 4.625 -2.9375 L 1.75 -2.9375 C 1.707031 -2.9375 1.6875 -2.921875 1.6875 -2.890625 L 1.6875 -0.09375 C 1.6875 -0.03125 1.65625 0 1.59375 0 L 0.921875 0 C 0.847656 0 0.8125 -0.03125 0.8125 -0.09375 Z M 0.8125 -6.53125 "/></g></g></g><g fill="#000000" fill-opacity="1"><g transform="translate(153.555459, 60.524611)"><g/></g></g><g fill="#000000" fill-opacity="1"><g transform="translate(158.391415, 60.524611)"><g><path d="M 2.28125 0 C 2.21875 0 2.1875 -0.03125 2.1875 -0.09375 L 2.1875 -5.765625 C 2.1875 -5.804688 2.164062 -5.828125 2.125 -5.828125 L 0.3125 -5.828125 C 0.25 -5.828125 0.21875 -5.859375 0.21875 -5.921875 L 0.21875 -6.53125 C 0.21875 -6.59375 0.25 -6.625 0.3125 -6.625 L 4.921875 -6.625 C 4.984375 -6.625 5.015625 -6.59375 5.015625 -6.53125 L 5.015625 -5.921875 C 5.015625 -5.859375 4.984375 -5.828125 4.921875 -5.828125 L 3.109375 -5.828125 C 3.066406 -5.828125 3.046875 -5.804688 3.046875 -5.765625 L 3.046875 -0.09375 C 3.046875 -0.03125 3.015625 0 2.953125 0 Z M 2.28125 0 "/></g></g></g><g fill="#000000" fill-opacity="1"><g transform="translate(166.121342, 60.524611)"><g><path d="M 0.8125 -6.53125 C 0.8125 -6.59375 0.847656 -6.625 0.921875 -6.625 L 1.59375 -6.625 C 1.65625 -6.625 1.6875 -6.59375 1.6875 -6.53125 L 1.6875 -3.8125 C 1.6875 -3.769531 1.707031 -3.75 1.75 -3.75 L 4.625 -3.75 C 4.664062 -3.75 4.6875 -3.769531 4.6875 -3.8125 L 4.6875 -6.53125 C 4.6875 -6.59375 4.71875 -6.625 4.78125 -6.625 L 5.453125 -6.625 C 5.515625 -6.625 5.546875 -6.59375 5.546875 -6.53125 L 5.546875 -0.09375 C 5.546875 -0.03125 5.515625 0 5.453125 0 L 4.78125 0 C 4.71875 0 4.6875 -0.03125 4.6875 -0.09375 L 4.6875 -2.890625 C 4.6875 -2.921875 4.664062 -2.9375 4.625 -2.9375 L 1.75 -2.9375 C 1.707031 -2.9375 1.6875 -2.921875 1.6875 -2.890625 L 1.6875 -0.09375 C 1.6875 -0.03125 1.65625 0 1.59375 0 L 0.921875 0 C 0.847656 0 0.8125 -0.03125 0.8125 -0.09375 Z M 0.8125 -6.53125 "/></g></g></g><g fill="#000000" fill-opacity="1"><g transform="translate(174.981584, 60.524611)"><g><path d="M 0.8125 -6.53125 C 0.8125 -6.59375 0.847656 -6.625 0.921875 -6.625 L 4.90625 -6.625 C 4.96875 -6.625 5 -6.59375 5 -6.53125 L 5 -5.921875 C 5 -5.859375 4.96875 -5.828125 4.90625 -5.828125 L 1.75 -5.828125 C 1.707031 -5.828125 1.6875 -5.804688 1.6875 -5.765625 L 1.6875 -3.8125 C 1.6875 -3.769531 1.707031 -3.75 1.75 -3.75 L 4.421875 -3.75 C 4.492188 -3.75 4.53125 -3.71875 4.53125 -3.65625 L 4.53125 -3.046875 C 4.53125 -2.972656 4.492188 -2.9375 4.421875 -2.9375 L 1.75 -2.9375 C 1.707031 -2.9375 1.6875 -2.921875 1.6875 -2.890625 L 1.6875 -0.875 C 1.6875 -0.832031 1.707031 -0.8125 1.75 -0.8125 L 4.90625 -0.8125 C 4.96875 -0.8125 5 -0.78125 5 -0.71875 L 5 -0.09375 C 5 -0.03125 4.96875 0 4.90625 0 L 0.921875 0 C 0.847656 0 0.8125 -0.03125 0.8125 -0.09375 Z M 0.8125 -6.53125 "/></g></g></g><g fill="#000000" fill-opacity="1"><g transform="translate(182.964855, 60.524611)"><g/></g></g><g fill="#000000" fill-opacity="1"><g transform="translate(187.80081, 60.524611)"><g><path d="M 3.234375 -3.484375 C 3.640625 -3.484375 3.957031 -3.585938 4.1875 -3.796875 C 4.414062 -4.003906 4.53125 -4.289062 4.53125 -4.65625 C 4.53125 -5.019531 4.414062 -5.304688 4.1875 -5.515625 C 3.957031 -5.722656 3.640625 -5.828125 3.234375 -5.828125 L 1.75 -5.828125 C 1.707031 -5.828125 1.6875 -5.804688 1.6875 -5.765625 L 1.6875 -3.546875 C 1.6875 -3.503906 1.707031 -3.484375 1.75 -3.484375 Z M 0.921875 0 C 0.847656 0 0.8125 -0.03125 0.8125 -0.09375 L 0.8125 -6.53125 C 0.8125 -6.59375 0.847656 -6.625 0.921875 -6.625 L 3.28125 -6.625 C 3.59375 -6.625 3.878906 -6.578125 4.140625 -6.484375 C 4.398438 -6.390625 4.617188 -6.253906 4.796875 -6.078125 C 4.984375 -5.910156 5.125 -5.703125 5.21875 -5.453125 C 5.320312 -5.210938 5.375 -4.945312 5.375 -4.65625 C 5.375 -4.351562 5.320312 -4.078125 5.21875 -3.828125 C 5.125 -3.585938 4.984375 -3.378906 4.796875 -3.203125 C 4.617188 -3.035156 4.398438 -2.90625 4.140625 -2.8125 C 3.878906 -2.71875 3.59375 -2.671875 3.28125 -2.671875 L 1.75 -2.671875 C 1.707031 -2.671875 1.6875 -2.648438 1.6875 -2.609375 L 1.6875 -0.09375 C 1.6875 -0.03125 1.65625 0 1.59375 0 Z M 0.921875 0 "/></g></g></g><g fill="#000000" fill-opacity="1"><g transform="translate(196.066662, 60.524611)"><g><path d="M 3.015625 -0.703125 C 3.378906 -0.703125 3.675781 -0.785156 3.90625 -0.953125 C 4.144531 -1.117188 4.316406 -1.363281 4.421875 -1.6875 C 4.441406 -1.75 4.457031 -1.820312 4.46875 -1.90625 C 4.488281 -1.988281 4.503906 -2.09375 4.515625 -2.21875 C 4.535156 -2.351562 4.550781 -2.507812 4.5625 -2.6875 C 4.570312 -2.863281 4.578125 -3.070312 4.578125 -3.3125 C 4.578125 -3.550781 4.570312 -3.757812 4.5625 -3.9375 C 4.550781 -4.113281 4.535156 -4.265625 4.515625 -4.390625 C 4.503906 -4.523438 4.488281 -4.632812 4.46875 -4.71875 C 4.457031 -4.8125 4.441406 -4.882812 4.421875 -4.9375 C 4.316406 -5.257812 4.144531 -5.503906 3.90625 -5.671875 C 3.675781 -5.835938 3.378906 -5.921875 3.015625 -5.921875 C 2.640625 -5.921875 2.335938 -5.835938 2.109375 -5.671875 C 1.878906 -5.503906 1.710938 -5.257812 1.609375 -4.9375 C 1.585938 -4.882812 1.566406 -4.8125 1.546875 -4.71875 C 1.535156 -4.632812 1.519531 -4.523438 1.5 -4.390625 C 1.488281 -4.265625 1.476562 -4.113281 1.46875 -3.9375 C 1.46875 -3.757812 1.46875 -3.550781 1.46875 -3.3125 C 1.46875 -3.070312 1.46875 -2.863281 1.46875 -2.6875 C 1.476562 -2.507812 1.488281 -2.351562 1.5 -2.21875 C 1.519531 -2.09375 1.535156 -1.988281 1.546875 -1.90625 C 1.566406 -1.820312 1.585938 -1.75 1.609375 -1.6875 C 1.710938 -1.363281 1.878906 -1.117188 2.109375 -0.953125 C 2.335938 -0.785156 2.640625 -0.703125 3.015625 -0.703125 Z M 3.015625 0.109375 C 2.453125 0.109375 1.976562 -0.0195312 1.59375 -0.28125 C 1.207031 -0.539062 0.929688 -0.925781 0.765625 -1.4375 C 0.734375 -1.539062 0.703125 -1.644531 0.671875 -1.75 C 0.648438 -1.851562 0.632812 -1.972656 0.625 -2.109375 C 0.613281 -2.253906 0.601562 -2.421875 0.59375 -2.609375 C 0.582031 -2.804688 0.578125 -3.039062 0.578125 -3.3125 C 0.578125 -3.582031 0.582031 -3.816406 0.59375 -4.015625 C 0.601562 -4.210938 0.613281 -4.378906 0.625 -4.515625 C 0.632812 -4.660156 0.648438 -4.785156 0.671875 -4.890625 C 0.703125 -4.992188 0.734375 -5.09375 0.765625 -5.1875 C 0.929688 -5.695312 1.207031 -6.082031 1.59375 -6.34375 C 1.976562 -6.601562 2.453125 -6.734375 3.015625 -6.734375 C 3.578125 -6.734375 4.050781 -6.601562 4.4375 -6.34375 C 4.820312 -6.082031 5.101562 -5.695312 5.28125 -5.1875 C 5.3125 -5.09375 5.335938 -4.992188 5.359375 -4.890625 C 5.378906 -4.785156 5.394531 -4.660156 5.40625 -4.515625 C 5.425781 -4.378906 5.4375 -4.210938 5.4375 -4.015625 C 5.445312 -3.816406 5.453125 -3.582031 5.453125 -3.3125 C 5.453125 -3.039062 5.445312 -2.804688 5.4375 -2.609375 C 5.4375 -2.421875 5.425781 -2.253906 5.40625 -2.109375 C 5.394531 -1.972656 5.378906 -1.851562 5.359375 -1.75 C 5.335938 -1.644531 5.3125 -1.539062 5.28125 -1.4375 C 5.101562 -0.925781 4.820312 -0.539062 4.4375 -0.28125 C 4.050781 -0.0195312 3.578125 0.109375 3.015625 0.109375 Z M 3.015625 0.109375 "/></g></g></g><g fill="#000000" fill-opacity="1"><g transform="translate(204.595603, 60.524611)"><g><path d="M 5.53125 0 C 5.476562 0 5.445312 -0.03125 5.4375 -0.09375 L 4.015625 -5.046875 L 4 -5.046875 L 2.59375 -0.09375 C 2.570312 -0.03125 2.53125 0 2.46875 0 L 1.9375 0 C 1.882812 0 1.847656 -0.03125 1.828125 -0.09375 L 0.234375 -6.53125 C 0.210938 -6.59375 0.238281 -6.625 0.3125 -6.625 L 0.953125 -6.625 C 1.023438 -6.625 1.066406 -6.59375 1.078125 -6.53125 L 2.25 -1.609375 L 2.265625 -1.609375 L 3.640625 -6.53125 C 3.660156 -6.59375 3.703125 -6.625 3.765625 -6.625 L 4.265625 -6.625 C 4.316406 -6.625 4.351562 -6.59375 4.375 -6.53125 L 5.78125 -1.609375 L 5.796875 -1.609375 L 6.953125 -6.53125 C 6.972656 -6.59375 7.015625 -6.625 7.078125 -6.625 L 7.71875 -6.625 C 7.78125 -6.625 7.804688 -6.59375 7.796875 -6.53125 L 6.1875 -0.09375 C 6.175781 -0.03125 6.140625 0 6.078125 0 Z M 5.53125 0 "/></g></g></g><g fill="#000000" fill-opacity="1"><g transform="translate(215.112327, 60.524611)"><g><path d="M 0.8125 -6.53125 C 0.8125 -6.59375 0.847656 -6.625 0.921875 -6.625 L 4.90625 -6.625 C 4.96875 -6.625 5 -6.59375 5 -6.53125 L 5 -5.921875 C 5 -5.859375 4.96875 -5.828125 4.90625 -5.828125 L 1.75 -5.828125 C 1.707031 -5.828125 1.6875 -5.804688 1.6875 -5.765625 L 1.6875 -3.8125 C 1.6875 -3.769531 1.707031 -3.75 1.75 -3.75 L 4.421875 -3.75 C 4.492188 -3.75 4.53125 -3.71875 4.53125 -3.65625 L 4.53125 -3.046875 C 4.53125 -2.972656 4.492188 -2.9375 4.421875 -2.9375 L 1.75 -2.9375 C 1.707031 -2.9375 1.6875 -2.921875 1.6875 -2.890625 L 1.6875 -0.875 C 1.6875 -0.832031 1.707031 -0.8125 1.75 -0.8125 L 4.90625 -0.8125 C 4.96875 -0.8125 5 -0.78125 5 -0.71875 L 5 -0.09375 C 5 -0.03125 4.96875 0 4.90625 0 L 0.921875 0 C 0.847656 0 0.8125 -0.03125 0.8125 -0.09375 Z M 0.8125 -6.53125 "/></g></g></g><g fill="#000000" fill-opacity="1"><g transform="translate(223.095598, 60.524611)"><g><path d="M 3.296875 -3.625 C 3.679688 -3.625 3.984375 -3.71875 4.203125 -3.90625 C 4.421875 -4.09375 4.53125 -4.363281 4.53125 -4.71875 C 4.53125 -5.070312 4.421875 -5.34375 4.203125 -5.53125 C 3.984375 -5.726562 3.679688 -5.828125 3.296875 -5.828125 L 1.75 -5.828125 C 1.707031 -5.828125 1.6875 -5.804688 1.6875 -5.765625 L 1.6875 -3.671875 C 1.6875 -3.640625 1.707031 -3.625 1.75 -3.625 Z M 4.65625 0 C 4.601562 0 4.5625 -0.03125 4.53125 -0.09375 L 3.203125 -2.8125 L 1.75 -2.8125 C 1.707031 -2.8125 1.6875 -2.789062 1.6875 -2.75 L 1.6875 -0.09375 C 1.6875 -0.03125 1.65625 0 1.59375 0 L 0.921875 0 C 0.847656 0 0.8125 -0.03125 0.8125 -0.09375 L 0.8125 -6.53125 C 0.8125 -6.59375 0.847656 -6.625 0.921875 -6.625 L 3.3125 -6.625 C 3.625 -6.625 3.90625 -6.578125 4.15625 -6.484375 C 4.414062 -6.398438 4.632812 -6.273438 4.8125 -6.109375 C 5 -5.941406 5.140625 -5.738281 5.234375 -5.5 C 5.335938 -5.257812 5.390625 -5 5.390625 -4.71875 C 5.390625 -4.269531 5.269531 -3.890625 5.03125 -3.578125 C 4.800781 -3.265625 4.484375 -3.046875 4.078125 -2.921875 L 5.5 -0.109375 C 5.519531 -0.078125 5.519531 -0.0507812 5.5 -0.03125 C 5.488281 -0.0078125 5.46875 0 5.4375 0 Z M 4.65625 0 "/></g></g></g><g fill="#000000" fill-opacity="1"><g transform="translate(231.605047, 60.524611)"><g/></g></g><g fill="#000000" fill-opacity="1"><g transform="translate(236.441003, 60.524611)"><g><path d="M 3.015625 -0.703125 C 3.378906 -0.703125 3.675781 -0.785156 3.90625 -0.953125 C 4.144531 -1.117188 4.316406 -1.363281 4.421875 -1.6875 C 4.441406 -1.75 4.457031 -1.820312 4.46875 -1.90625 C 4.488281 -1.988281 4.503906 -2.09375 4.515625 -2.21875 C 4.535156 -2.351562 4.550781 -2.507812 4.5625 -2.6875 C 4.570312 -2.863281 4.578125 -3.070312 4.578125 -3.3125 C 4.578125 -3.550781 4.570312 -3.757812 4.5625 -3.9375 C 4.550781 -4.113281 4.535156 -4.265625 4.515625 -4.390625 C 4.503906 -4.523438 4.488281 -4.632812 4.46875 -4.71875 C 4.457031 -4.8125 4.441406 -4.882812 4.421875 -4.9375 C 4.316406 -5.257812 4.144531 -5.503906 3.90625 -5.671875 C 3.675781 -5.835938 3.378906 -5.921875 3.015625 -5.921875 C 2.640625 -5.921875 2.335938 -5.835938 2.109375 -5.671875 C 1.878906 -5.503906 1.710938 -5.257812 1.609375 -4.9375 C 1.585938 -4.882812 1.566406 -4.8125 1.546875 -4.71875 C 1.535156 -4.632812 1.519531 -4.523438 1.5 -4.390625 C 1.488281 -4.265625 1.476562 -4.113281 1.46875 -3.9375 C 1.46875 -3.757812 1.46875 -3.550781 1.46875 -3.3125 C 1.46875 -3.070312 1.46875 -2.863281 1.46875 -2.6875 C 1.476562 -2.507812 1.488281 -2.351562 1.5 -2.21875 C 1.519531 -2.09375 1.535156 -1.988281 1.546875 -1.90625 C 1.566406 -1.820312 1.585938 -1.75 1.609375 -1.6875 C 1.710938 -1.363281 1.878906 -1.117188 2.109375 -0.953125 C 2.335938 -0.785156 2.640625 -0.703125 3.015625 -0.703125 Z M 3.015625 0.109375 C 2.453125 0.109375 1.976562 -0.0195312 1.59375 -0.28125 C 1.207031 -0.539062 0.929688 -0.925781 0.765625 -1.4375 C 0.734375 -1.539062 0.703125 -1.644531 0.671875 -1.75 C 0.648438 -1.851562 0.632812 -1.972656 0.625 -2.109375 C 0.613281 -2.253906 0.601562 -2.421875 0.59375 -2.609375 C 0.582031 -2.804688 0.578125 -3.039062 0.578125 -3.3125 C 0.578125 -3.582031 0.582031 -3.816406 0.59375 -4.015625 C 0.601562 -4.210938 0.613281 -4.378906 0.625 -4.515625 C 0.632812 -4.660156 0.648438 -4.785156 0.671875 -4.890625 C 0.703125 -4.992188 0.734375 -5.09375 0.765625 -5.1875 C 0.929688 -5.695312 1.207031 -6.082031 1.59375 -6.34375 C 1.976562 -6.601562 2.453125 -6.734375 3.015625 -6.734375 C 3.578125 -6.734375 4.050781 -6.601562 4.4375 -6.34375 C 4.820312 -6.082031 5.101562 -5.695312 5.28125 -5.1875 C 5.3125 -5.09375 5.335938 -4.992188 5.359375 -4.890625 C 5.378906 -4.785156 5.394531 -4.660156 5.40625 -4.515625 C 5.425781 -4.378906 5.4375 -4.210938 5.4375 -4.015625 C 5.445312 -3.816406 5.453125 -3.582031 5.453125 -3.3125 C 5.453125 -3.039062 5.445312 -2.804688 5.4375 -2.609375 C 5.4375 -2.421875 5.425781 -2.253906 5.40625 -2.109375 C 5.394531 -1.972656 5.378906 -1.851562 5.359375 -1.75 C 5.335938 -1.644531 5.3125 -1.539062 5.28125 -1.4375 C 5.101562 -0.925781 4.820312 -0.539062 4.4375 -0.28125 C 4.050781 -0.0195312 3.578125 0.109375 3.015625 0.109375 Z M 3.015625 0.109375 "/></g></g></g><g fill="#000000" fill-opacity="1"><g transform="translate(244.969944, 60.524611)"><g><path d="M 0.8125 -6.53125 C 0.8125 -6.59375 0.847656 -6.625 0.921875 -6.625 L 4.90625 -6.625 C 4.96875 -6.625 5 -6.59375 5 -6.53125 L 5 -5.921875 C 5 -5.859375 4.96875 -5.828125 4.90625 -5.828125 L 1.75 -5.828125 C 1.707031 -5.828125 1.6875 -5.804688 1.6875 -5.765625 L 1.6875 -3.75 C 1.6875 -3.707031 1.707031 -3.6875 1.75 -3.6875 L 4.421875 -3.6875 C 4.492188 -3.6875 4.53125 -3.65625 4.53125 -3.59375 L 4.53125 -2.96875 C 4.53125 -2.90625 4.492188 -2.875 4.421875 -2.875 L 1.75 -2.875 C 1.707031 -2.875 1.6875 -2.851562 1.6875 -2.8125 L 1.6875 -0.09375 C 1.6875 -0.03125 1.65625 0 1.59375 0 L 0.921875 0 C 0.847656 0 0.8125 -0.03125 0.8125 -0.09375 Z M 0.8125 -6.53125 "/></g></g></g><g fill="#000000" fill-opacity="1"><g transform="translate(252.885013, 60.524611)"><g/></g></g><g fill="#000000" fill-opacity="1"><g transform="translate(257.720969, 60.524611)"><g><path d="M 1.6875 -0.875 C 1.6875 -0.832031 1.707031 -0.8125 1.75 -0.8125 L 2.96875 -0.8125 C 3.363281 -0.8125 3.6875 -0.878906 3.9375 -1.015625 C 4.1875 -1.160156 4.363281 -1.394531 4.46875 -1.71875 C 4.488281 -1.769531 4.507812 -1.832031 4.53125 -1.90625 C 4.550781 -1.988281 4.566406 -2.09375 4.578125 -2.21875 C 4.585938 -2.34375 4.59375 -2.488281 4.59375 -2.65625 C 4.601562 -2.832031 4.609375 -3.050781 4.609375 -3.3125 C 4.609375 -3.570312 4.601562 -3.789062 4.59375 -3.96875 C 4.59375 -4.144531 4.585938 -4.289062 4.578125 -4.40625 C 4.566406 -4.53125 4.550781 -4.628906 4.53125 -4.703125 C 4.507812 -4.785156 4.488281 -4.851562 4.46875 -4.90625 C 4.363281 -5.238281 4.1875 -5.472656 3.9375 -5.609375 C 3.6875 -5.753906 3.363281 -5.828125 2.96875 -5.828125 L 1.75 -5.828125 C 1.707031 -5.828125 1.6875 -5.804688 1.6875 -5.765625 Z M 0.8125 -6.53125 C 0.8125 -6.59375 0.847656 -6.625 0.921875 -6.625 L 3.15625 -6.625 C 4.289062 -6.625 5.007812 -6.15625 5.3125 -5.21875 C 5.34375 -5.125 5.367188 -5.023438 5.390625 -4.921875 C 5.410156 -4.828125 5.425781 -4.707031 5.4375 -4.5625 C 5.457031 -4.425781 5.46875 -4.253906 5.46875 -4.046875 C 5.476562 -3.847656 5.484375 -3.601562 5.484375 -3.3125 C 5.484375 -3.019531 5.476562 -2.769531 5.46875 -2.5625 C 5.46875 -2.363281 5.457031 -2.191406 5.4375 -2.046875 C 5.425781 -1.910156 5.410156 -1.789062 5.390625 -1.6875 C 5.367188 -1.59375 5.34375 -1.5 5.3125 -1.40625 C 5.007812 -0.46875 4.289062 0 3.15625 0 L 0.921875 0 C 0.847656 0 0.8125 -0.03125 0.8125 -0.09375 Z M 0.8125 -6.53125 "/></g></g></g><g fill="#000000" fill-opacity="1"><g transform="translate(266.288883, 60.524611)"><g><path d="M 4.015625 -2.34375 L 2.96875 -5.359375 L 2.953125 -5.359375 L 1.90625 -2.34375 Z M 2.53125 -6.53125 C 2.550781 -6.59375 2.59375 -6.625 2.65625 -6.625 L 3.28125 -6.625 C 3.351562 -6.625 3.394531 -6.59375 3.40625 -6.53125 L 5.6875 -0.09375 C 5.707031 -0.03125 5.679688 0 5.609375 0 L 4.9375 0 C 4.875 0 4.832031 -0.03125 4.8125 -0.09375 L 4.296875 -1.546875 L 1.625 -1.546875 L 1.109375 -0.09375 C 1.085938 -0.03125 1.046875 0 0.984375 0 L 0.296875 0 C 0.234375 0 0.210938 -0.03125 0.234375 -0.09375 Z M 2.53125 -6.53125 "/></g></g></g><g fill="#000000" fill-opacity="1"><g transform="translate(274.700894, 60.524611)"><g><path d="M 2.28125 0 C 2.21875 0 2.1875 -0.03125 2.1875 -0.09375 L 2.1875 -5.765625 C 2.1875 -5.804688 2.164062 -5.828125 2.125 -5.828125 L 0.3125 -5.828125 C 0.25 -5.828125 0.21875 -5.859375 0.21875 -5.921875 L 0.21875 -6.53125 C 0.21875 -6.59375 0.25 -6.625 0.3125 -6.625 L 4.921875 -6.625 C 4.984375 -6.625 5.015625 -6.59375 5.015625 -6.53125 L 5.015625 -5.921875 C 5.015625 -5.859375 4.984375 -5.828125 4.921875 -5.828125 L 3.109375 -5.828125 C 3.066406 -5.828125 3.046875 -5.804688 3.046875 -5.765625 L 3.046875 -0.09375 C 3.046875 -0.03125 3.015625 0 2.953125 0 Z M 2.28125 0 "/></g></g></g><g fill="#000000" fill-opacity="1"><g transform="translate(282.43081, 60.524611)"><g><path d="M 4.015625 -2.34375 L 2.96875 -5.359375 L 2.953125 -5.359375 L 1.90625 -2.34375 Z M 2.53125 -6.53125 C 2.550781 -6.59375 2.59375 -6.625 2.65625 -6.625 L 3.28125 -6.625 C 3.351562 -6.625 3.394531 -6.59375 3.40625 -6.53125 L 5.6875 -0.09375 C 5.707031 -0.03125 5.679688 0 5.609375 0 L 4.9375 0 C 4.875 0 4.832031 -0.03125 4.8125 -0.09375 L 4.296875 -1.546875 L 1.625 -1.546875 L 1.109375 -0.09375 C 1.085938 -0.03125 1.046875 0 0.984375 0 L 0.296875 0 C 0.234375 0 0.210938 -0.03125 0.234375 -0.09375 Z M 2.53125 -6.53125 "/></g></g></g></svg>